<svg width="355.34" height="102.35" viewBox="0 0 185 53" fill="none" xmlns="http://www.w3.org/2000/svg">
<path d="M1.86881 35V7.834H8.97481C11.1055 7.834 12.9188 8.59333 14.4148 10.112C15.9108 11.608 16.6588 13.4213 16.6588 15.552C16.6588 17.592 15.9561 19.3487 14.5508 20.822C15.6388 21.5247 16.5001 22.4427 17.1348 23.576C17.7695 24.732 18.0868 25.9673 18.0868 27.282C18.0868 29.4127 17.3275 31.2373 15.8088 32.756C14.3128 34.252 12.4995 35 10.3688 35H1.86881ZM23.7361 35H20.0641V7.834H23.7361V35ZM30.5367 24.256C29.7433 25.0493 29.3467 26.024 29.3467 27.18C29.3467 28.3133 29.7433 29.288 30.5367 30.104C31.33 30.8973 32.3047 31.294 33.4607 31.294C34.6167 31.294 35.5913 30.8973 36.3847 30.104C37.178 29.288 37.5747 28.302 37.5747 27.146C37.5747 25.99 37.178 25.0153 36.3847 24.222C35.5913 23.4287 34.6167 23.032 33.4607 23.032C32.3047 23.032 31.33 23.44 30.5367 24.256ZM37.6427 33.844C36.4187 34.6147 35.0473 35 33.5287 35C31.3753 35 29.5393 34.2407 28.0207 32.722C26.4793 31.2033 25.7087 29.3673 25.7087 27.214C25.7087 25.0607 26.4793 23.2247 28.0207 21.706C29.5393 20.1647 31.3753 19.394 33.5287 19.394C35.682 19.394 37.518 20.1647 39.0367 21.706C40.5553 23.2247 41.326 25.0607 41.3487 27.214V35H37.6427V33.844ZM54.7303 29.186L57.7223 31.43C57.4276 31.8833 57.065 32.314 56.6343 32.722C55.1156 34.2407 53.2796 35 51.1263 35C48.973 35 47.137 34.2407 45.6183 32.722C44.077 31.2033 43.3063 29.3673 43.3063 27.214C43.3063 25.0607 44.077 23.2247 45.6183 21.706C47.137 20.1647 48.973 19.394 51.1263 19.394C53.2796 19.394 55.1156 20.1647 56.6343 21.706C57.0423 22.114 57.405 22.5333 57.7223 22.964L54.7303 25.208C54.549 24.8907 54.311 24.596 54.0163 24.324C53.2003 23.5307 52.237 23.1227 51.1263 23.1C50.0156 23.1 49.0523 23.508 48.2363 24.324C47.443 25.14 47.0463 26.1033 47.0463 27.214C47.0463 28.3247 47.443 29.2767 48.2363 30.07C49.0523 30.8633 50.0156 31.2713 51.1263 31.294C52.2596 31.294 53.223 30.886 54.0163 30.07C54.311 29.798 54.549 29.5033 54.7303 29.186ZM74.3975 35H69.6375L63.3475 27.35V35H59.6755V7.834H63.3475V23.644L67.5635 19.394H72.7655L66.6115 25.548L74.3975 35Z" fill="url(#paint0_linear_633_111)"/>
<path d="M78.8573 35H75.0153V7.834H81.5773C84.4786 7.834 86.9606 8.86533 89.0233 10.928C91.086 12.9907 92.1173 15.4727 92.1173 18.374C92.1173 21.298 91.086 23.7913 89.0233 25.854C86.9606 27.9167 84.4786 28.948 81.5773 28.948H78.8573V35ZM101.894 19.394C104.002 19.394 105.804 20.142 107.3 21.638C108.796 23.134 109.555 24.9473 109.578 27.078V35H105.906V27.078C105.906 25.9673 105.509 25.0267 104.716 24.256C103.923 23.4627 102.982 23.0547 101.894 23.032C100.783 23.032 99.8312 23.44 99.0379 24.256C98.2446 25.0267 97.8479 25.9673 97.8479 27.078V35H94.0739V7.834H97.7459V20.584C99.0152 19.7907 100.398 19.394 101.894 19.394ZM115.687 35H112.015V25.718H115.687V35ZM116.163 21.706C116.163 22.3407 115.936 22.896 115.483 23.372C115.029 23.8253 114.497 24.052 113.885 24.052C113.25 24.052 112.695 23.8253 112.219 23.372C111.765 22.896 111.539 22.3407 111.539 21.706C111.539 21.0713 111.765 20.5273 112.219 20.074C112.672 19.6207 113.227 19.394 113.885 19.394C114.519 19.394 115.052 19.6207 115.483 20.074C115.936 20.5273 116.163 21.0713 116.163 21.706ZM121.886 41.834C121.886 41.834 121.875 39.556 121.852 35H118.18C120.628 37.04 121.863 39.318 121.886 41.834ZM121.852 35V7.8C121.852 6.916 121.705 6.11133 121.41 5.386C121.138 4.706 120.798 4.18467 120.39 3.822C119.982 3.45933 119.574 3.18733 119.166 3.006C118.758 2.84733 118.35 2.768 117.942 2.768C117.557 2.768 117.149 2.836 116.718 2.972C116.265 3.108 115.811 3.312 115.358 3.584C114.837 3.924 114.429 4.34333 114.134 4.842C113.794 5.40867 113.567 6.05467 113.454 6.78V6.814C112.638 5.74866 111.754 5.08 110.802 4.808C111.437 5.10266 112.015 5.658 112.536 6.474C113.057 7.29 113.318 8.18533 113.318 9.16C113.318 9.568 113.284 9.81733 113.216 9.908C113.193 9.95333 113.171 10.01 113.148 10.078C112.944 10.554 112.921 10.962 113.08 11.302C113.239 11.6193 113.488 11.778 113.828 11.778C114.1 11.778 114.327 11.6307 114.508 11.336C114.644 11.132 114.746 10.792 114.814 10.316C114.995 8.91067 115.539 7.81133 116.446 7.018C116.605 6.882 116.752 6.82533 116.888 6.848C117.001 6.848 117.081 6.89333 117.126 6.984C117.829 8.276 118.18 9.636 118.18 11.064V35H121.852ZM123.873 41.834L123.907 35H127.579C125.131 37.04 123.896 39.318 123.873 41.834ZM123.907 35V7.8C123.907 6.96133 124.054 6.15667 124.349 5.386C124.621 4.706 124.961 4.18467 125.369 3.822C125.777 3.45933 126.185 3.18733 126.593 3.006C127.001 2.84733 127.409 2.768 127.817 2.768C128.202 2.768 128.61 2.836 129.041 2.972C129.494 3.108 129.948 3.312 130.401 3.584C130.922 3.924 131.33 4.34333 131.625 4.842C131.965 5.40867 132.192 6.05467 132.305 6.78V6.814C133.121 5.74866 134.005 5.08 134.957 4.808C134.322 5.10266 133.744 5.658 133.223 6.474C132.702 7.29 132.441 8.18533 132.441 9.16C132.441 9.568 132.475 9.81733 132.543 9.908C132.566 9.95333 132.588 10.01 132.611 10.078C132.815 10.554 132.838 10.962 132.679 11.302C132.52 11.6193 132.271 11.778 131.931 11.778C131.659 11.778 131.432 11.6307 131.251 11.336C131.115 11.132 131.013 10.792 130.945 10.316C130.764 8.91067 130.22 7.81133 129.313 7.018C129.154 6.882 129.007 6.82533 128.871 6.848C128.758 6.848 128.678 6.89333 128.633 6.984C127.93 8.276 127.579 9.636 127.579 11.064V35H123.907ZM133.65 35H129.978V25.718H133.65V35ZM134.126 21.706C134.126 22.3407 133.899 22.896 133.446 23.372C132.992 23.8253 132.46 24.052 131.848 24.052C131.213 24.052 130.658 23.8253 130.182 23.372C129.728 22.896 129.502 22.3407 129.502 21.706C129.502 21.0713 129.728 20.5273 130.182 20.074C130.635 19.6207 131.19 19.394 131.848 19.394C132.482 19.394 133.015 19.6207 133.446 20.074C133.899 20.5273 134.126 21.0713 134.126 21.706ZM140.937 24.12C140.121 24.936 139.713 25.9333 139.713 27.112C139.713 28.268 140.121 29.2653 140.937 30.104C141.776 30.9427 142.784 31.362 143.963 31.362C145.142 31.362 146.139 30.9427 146.955 30.104C147.794 29.2653 148.213 28.268 148.213 27.112C148.213 25.9333 147.794 24.936 146.955 24.12C146.139 23.2813 145.142 22.862 143.963 22.862C142.784 22.862 141.776 23.2813 140.937 24.12ZM136.143 27.214C136.143 25.0607 136.902 23.2133 138.421 21.672C139.94 20.1307 141.776 19.3713 143.929 19.394C146.06 19.394 147.896 20.1647 149.437 21.706C150.978 23.2247 151.749 25.0607 151.749 27.214C151.749 29.3447 150.978 31.1807 149.437 32.722C147.918 34.2407 146.082 35 143.929 35C142.41 35 141.039 34.6147 139.815 33.844V36.564C139.815 38.3093 139.815 40.0547 139.815 41.8C137.367 41.8 136.143 41.8 136.143 41.8C136.143 38.6947 136.143 36.9493 136.143 36.564V27.214Z" fill="url(#paint1_linear_633_111)"/>
<path d="M6.9126 38.1576C6.08102 37.8678 5.28223 37.7229 4.51621 37.7229C3.72604 37.7229 3.21191 38.0472 2.97383 38.6959C2.83236 39.0789 2.75299 39.5154 2.73574 40.0054C2.72194 40.4919 2.71504 40.9129 2.71504 41.2683V41.7807C2.71504 42.8814 2.89964 43.6112 3.26885 43.97C3.48968 44.184 3.7847 44.3099 4.15391 44.3479C4.32643 44.3686 4.50413 44.3789 4.68701 44.3789C4.86989 44.3789 5.04587 44.3703 5.21494 44.353C5.38747 44.3323 5.55137 44.3064 5.70664 44.2754C6.02064 44.2133 6.25527 44.1443 6.41055 44.0684V41.6254H4.81123V40.9111H7.2749V44.4565C6.95055 44.7015 6.37604 44.893 5.55137 45.0311C5.26497 45.0794 4.9389 45.1035 4.57314 45.1035C4.20739 45.1035 3.87096 45.0673 3.56387 44.9948C3.26022 44.9189 3.00143 44.8102 2.7875 44.6687C2.57702 44.5238 2.40622 44.3444 2.2751 44.1305C2.14398 43.9165 2.04219 43.6698 1.96973 43.3903C1.85241 42.9211 1.79375 42.3431 1.79375 41.6564C1.79375 40.9663 1.80583 40.4229 1.82998 40.0261C1.85413 39.6258 1.90072 39.2652 1.96973 38.9443C2.04219 38.62 2.14225 38.3353 2.26992 38.0903C2.39759 37.8453 2.56494 37.64 2.77197 37.4744C3.19294 37.1432 3.79333 36.9775 4.57314 36.9775C5.46338 36.9775 6.22422 37.0759 6.85566 37.2726L7.11963 37.3554L6.9126 38.1576ZM13.9206 44.6739C13.2063 44.9603 12.4179 45.1035 11.5553 45.1035C11.0549 45.1035 10.6305 45.0518 10.282 44.9482C9.7265 44.7895 9.35729 44.4617 9.17441 43.9648C9.00534 43.499 8.9208 42.8089 8.9208 41.8945V41.6306C8.9208 40.5368 9.14854 39.769 9.604 39.3273C10.0146 38.934 10.6995 38.7373 11.6588 38.7373C12.5939 38.7373 13.2322 38.9685 13.5738 39.4309C13.7395 39.6551 13.8481 39.9277 13.8999 40.2486C13.9551 40.5661 13.9827 40.8697 13.9827 41.1596C13.9827 41.6116 13.9724 41.9618 13.9517 42.2103C13.4651 42.231 13.0286 42.2413 12.6422 42.2413C12.6422 42.2413 12.3644 42.2413 11.8089 42.2413C10.9394 42.2413 10.27 42.2034 9.80068 42.1274C9.80068 42.9211 9.90075 43.4749 10.1009 43.7889C10.3459 44.1719 10.8341 44.3634 11.5656 44.3634C12.2971 44.3634 12.9976 44.2202 13.667 43.9338L13.9206 44.6739ZM13.108 41.5219V41.025C13.108 40.4833 13.0028 40.0968 12.7923 39.8656C12.5577 39.6068 12.1522 39.4774 11.576 39.4774C10.8859 39.4774 10.4149 39.6275 10.163 39.9277C9.92145 40.2141 9.80068 40.7455 9.80068 41.5219H13.108ZM15.9754 41.9359C15.9754 41.1527 16.0151 40.6058 16.0944 40.2952C16.1738 39.9847 16.2704 39.7397 16.3843 39.5603C16.5016 39.3774 16.6586 39.2256 16.8553 39.1048C17.2486 38.8598 17.83 38.7373 18.5995 38.7373C19.7106 38.7373 20.4248 39.0116 20.7423 39.5603C20.9321 39.8915 21.0408 40.359 21.0684 40.9629C21.0787 41.2493 21.0839 41.565 21.0839 41.9101C21.0839 42.2551 21.0718 42.5777 21.0477 42.8779C21.027 43.1747 20.9838 43.4421 20.9183 43.6802C20.8527 43.9183 20.7613 44.127 20.6439 44.3064C20.5266 44.4824 20.3714 44.6308 20.1781 44.7516C19.7986 44.9862 19.2448 45.1035 18.5167 45.1035C17.4263 45.1035 16.7104 44.8344 16.3688 44.2961C16.1583 43.9614 16.0358 43.4921 16.0013 42.8883C15.984 42.5984 15.9754 42.281 15.9754 41.9359ZM17.3832 44.0942C17.5074 44.1874 17.6627 44.2581 17.849 44.3064C18.0388 44.3513 18.2959 44.3737 18.6202 44.3737C18.948 44.3737 19.2223 44.3271 19.4432 44.234C19.6674 44.1408 19.8348 43.9924 19.9452 43.7889C20.0591 43.5818 20.1298 43.3144 20.1574 42.9866C20.1885 42.6588 20.204 42.2775 20.204 41.8428C20.204 41.408 20.1902 41.0457 20.1626 40.7559C20.1384 40.466 20.0746 40.2262 19.9711 40.0364C19.7641 39.6638 19.3034 39.4774 18.5892 39.4774C17.8335 39.4774 17.3418 39.6638 17.1141 40.0364C17.0002 40.2262 16.9277 40.4677 16.8967 40.761C16.8656 41.0543 16.8501 41.3735 16.8501 41.7186C16.8501 42.0636 16.8535 42.3569 16.8604 42.5984C16.8708 42.8365 16.8932 43.0522 16.9277 43.2454C16.9657 43.4352 17.0192 43.6008 17.0882 43.7423C17.1606 43.8838 17.259 44.0011 17.3832 44.0942ZM25.9284 39.5447C25.366 39.5447 24.7518 39.7431 24.0858 40.1399V45H23.2267V38.8408H23.9823L24.0651 39.4774C24.669 38.984 25.3453 38.7373 26.094 38.7373C26.5219 38.7373 26.8583 38.7994 27.1033 38.9236C27.3518 39.0444 27.5312 39.2445 27.6416 39.524C28.4042 38.9995 29.1288 38.7373 29.8154 38.7373C30.4641 38.7373 30.9144 38.8857 31.1663 39.1824C31.4078 39.4688 31.5286 39.9778 31.5286 40.7093V45H30.6591V40.8697C30.6591 40.3729 30.6108 40.0537 30.5142 39.9122C30.4175 39.7673 30.302 39.6707 30.1674 39.6224C30.0363 39.5706 29.881 39.5447 29.7016 39.5447C29.5256 39.5447 29.3582 39.562 29.1995 39.5965C29.0442 39.6275 28.8855 39.6707 28.7233 39.7259C28.3955 39.8397 28.0815 39.9847 27.7813 40.1606C27.7986 40.3677 27.8072 40.5506 27.8072 40.7093V45H26.9377V40.8697C26.9377 40.3729 26.8894 40.0537 26.7928 39.9122C26.6962 39.7673 26.5806 39.6707 26.446 39.6224C26.3149 39.5706 26.1424 39.5447 25.9284 39.5447ZM38.6401 44.6739C37.9259 44.9603 37.1374 45.1035 36.2748 45.1035C35.7745 45.1035 35.3501 45.0518 35.0016 44.9482C34.446 44.7895 34.0768 44.4617 33.8939 43.9648C33.7249 43.499 33.6403 42.8089 33.6403 41.8945V41.6306C33.6403 40.5368 33.8681 39.769 34.3235 39.3273C34.7341 38.934 35.4191 38.7373 36.3783 38.7373C37.3134 38.7373 37.9518 38.9685 38.2934 39.4309C38.459 39.6551 38.5677 39.9277 38.6194 40.2486C38.6746 40.5661 38.7022 40.8697 38.7022 41.1596C38.7022 41.6116 38.6919 41.9618 38.6712 42.2103C38.1847 42.231 37.7482 42.2413 37.3617 42.2413C37.3617 42.2413 37.084 42.2413 36.5284 42.2413C35.6589 42.2413 34.9895 42.2034 34.5202 42.1274C34.5202 42.9211 34.6203 43.4749 34.8204 43.7889C35.0654 44.1719 35.5536 44.3634 36.2852 44.3634C37.0167 44.3634 37.7171 44.2202 38.3865 43.9338L38.6401 44.6739ZM37.8275 41.5219V41.025C37.8275 40.4833 37.7223 40.0968 37.5118 39.8656C37.2772 39.6068 36.8717 39.4774 36.2955 39.4774C35.6054 39.4774 35.1344 39.6275 34.8825 39.9277C34.641 40.2141 34.5202 40.7455 34.5202 41.5219H37.8275ZM43.9091 44.705C43.3467 44.9707 42.8273 45.1035 42.3512 45.1035C41.4885 45.1035 40.9986 44.7343 40.8813 43.9959C40.8536 43.8199 40.8398 43.5646 40.8398 43.2299V39.5603H40.0945V38.9236L40.8398 38.8408L40.9744 37.433H41.6939V38.8408H43.4898V39.5603H41.6939V43.2144C41.6939 43.6388 41.7249 43.9096 41.787 44.027C41.9009 44.2409 42.1286 44.3479 42.4702 44.3479C42.8118 44.3479 43.1931 44.2426 43.6141 44.0321L43.9091 44.705ZM47.5063 39.5913C47.0646 39.5913 46.6143 39.8121 46.1554 40.2538V45H45.2962V38.8408H46.0519L46.1347 39.6586C46.2968 39.4067 46.4711 39.21 46.6574 39.0686C46.8472 38.9271 47.0025 38.8408 47.1232 38.8098C47.2958 38.7615 47.4597 38.7373 47.6149 38.7373C47.7702 38.7373 47.9652 38.7684 48.1998 38.8305L48.1222 39.6534C47.9462 39.612 47.7409 39.5913 47.5063 39.5913ZM50.3322 37.3657C50.101 37.3657 49.9527 37.3329 49.8871 37.2674C49.7836 37.1604 49.7318 37.0138 49.7318 36.8274C49.7318 36.6377 49.7422 36.5031 49.7629 36.4237C49.787 36.3409 49.8216 36.2771 49.8664 36.2322C49.9492 36.1494 50.0752 36.108 50.2442 36.108C50.4168 36.108 50.5393 36.1166 50.6117 36.1339C50.6876 36.1511 50.7497 36.1839 50.798 36.2322C50.8809 36.315 50.9223 36.4513 50.9223 36.6411C50.9223 36.8274 50.9119 36.962 50.8912 37.0448C50.874 37.1242 50.8429 37.188 50.798 37.2363C50.7118 37.3226 50.5565 37.3657 50.3322 37.3657ZM49.913 38.8408H50.7618V45H49.9233L49.913 38.8408ZM57.1953 44.41C56.5363 44.8723 55.8393 45.1035 55.1043 45.1035C54.2451 45.1035 53.6723 44.7981 53.3859 44.1874C53.2203 43.8424 53.1237 43.4059 53.0961 42.8779C53.0857 42.6364 53.0806 42.3707 53.0806 42.0809C53.0806 41.7876 53.0823 41.4925 53.0857 41.1958C53.0926 40.8991 53.1151 40.6247 53.153 40.3729C53.191 40.121 53.2496 39.895 53.329 39.6948C53.4118 39.4912 53.5291 39.3187 53.681 39.1772C53.995 38.884 54.478 38.7373 55.1302 38.7373C55.7858 38.7373 56.4828 38.9133 57.2212 39.2652L57.304 38.8408H58.0493L58.0545 47.355H57.1953V44.41ZM57.1953 39.9795C56.5742 39.6689 55.9738 39.5137 55.3941 39.5137C54.9732 39.5137 54.6954 39.5482 54.5608 39.6172C54.4263 39.6862 54.3228 39.7759 54.2503 39.8863C54.1813 39.9967 54.1243 40.1486 54.0795 40.3418C54.0001 40.7041 53.9605 41.301 53.9605 42.1326V42.2465C53.9605 43.0125 54.0553 43.5491 54.2451 43.8562C54.4349 44.1701 54.7817 44.3271 55.2855 44.3271H55.3631C55.8393 44.3271 56.3258 44.196 56.8227 43.9338C56.9641 43.8613 57.0883 43.7871 57.1953 43.7112V39.9795ZM64.9745 42.2879C64.9745 43.4266 65.0073 44.3168 65.0729 44.9586L64.3017 45.0207L64.1774 44.2909C63.7737 44.6256 63.3027 44.8672 62.7645 45.0155C62.5505 45.0742 62.2952 45.1035 61.9984 45.1035C61.7051 45.1035 61.4412 45.069 61.2065 45C60.9754 44.9275 60.7908 44.8137 60.6527 44.6584C60.4008 44.3789 60.2749 43.87 60.2749 43.1315V38.8408H61.1444V42.9918C61.1444 43.4887 61.1927 43.8096 61.2894 43.9545C61.386 44.096 61.4998 44.1926 61.631 44.2443C61.7655 44.2926 61.9243 44.3168 62.1071 44.3168C62.29 44.3168 62.466 44.303 62.6351 44.2754C62.8076 44.2443 62.9801 44.2012 63.1526 44.146C63.5149 44.0287 63.8427 43.8682 64.136 43.6646V43.6595C64.1222 43.3972 64.1153 42.8866 64.1153 42.1274V38.8408H64.9745V42.2879ZM72.1999 44.6739C71.4856 44.9603 70.6972 45.1035 69.8346 45.1035C69.3342 45.1035 68.9098 45.0518 68.5613 44.9482C68.0058 44.7895 67.6366 44.4617 67.4537 43.9648C67.2846 43.499 67.2001 42.8089 67.2001 41.8945V41.6306C67.2001 40.5368 67.4278 39.769 67.8833 39.3273C68.2939 38.934 68.9788 38.7373 69.9381 38.7373C70.8732 38.7373 71.5115 38.9685 71.8531 39.4309C72.0188 39.6551 72.1274 39.9277 72.1792 40.2486C72.2344 40.5661 72.262 40.8697 72.262 41.1596C72.262 41.6116 72.2517 41.9618 72.231 42.2103C71.7444 42.231 71.3079 42.2413 70.9215 42.2413C70.9215 42.2413 70.6437 42.2413 70.0882 42.2413C69.2187 42.2413 68.5493 42.2034 68.08 42.1274C68.08 42.9211 68.18 43.4749 68.3802 43.7889C68.6252 44.1719 69.1134 44.3634 69.8449 44.3634C70.5764 44.3634 71.2769 44.2202 71.9463 43.9338L72.1999 44.6739ZM71.3873 41.5219V41.025C71.3873 40.4833 71.2821 40.0968 71.0716 39.8656C70.8369 39.6068 70.4315 39.4774 69.8553 39.4774C69.1652 39.4774 68.6942 39.6275 68.4423 39.9277C68.2008 40.2141 68.08 40.7455 68.08 41.5219H71.3873ZM74.4462 43.7785C75.157 44.1753 75.8713 44.3737 76.589 44.3737C77.1859 44.3737 77.5361 44.1615 77.6397 43.7371C77.6742 43.5922 77.6914 43.4162 77.6914 43.2092C77.6914 42.9987 77.6673 42.8365 77.619 42.7227C77.5706 42.6053 77.4896 42.5191 77.3757 42.4639C77.2618 42.4052 77.11 42.3621 76.9202 42.3345C76.7339 42.3069 76.4958 42.2689 76.206 42.2206C75.9161 42.1688 75.6504 42.1119 75.4089 42.0498C75.1674 41.9877 74.9621 41.898 74.793 41.7807C74.4341 41.5288 74.2616 41.1044 74.2754 40.5074V40.378C74.2754 39.75 74.4824 39.3032 74.8965 39.0375C75.2968 38.7753 75.9575 38.6855 76.8788 38.7684C77.5068 38.827 78.0071 38.9357 78.3798 39.0944L78.1365 39.876C77.7225 39.7 77.2256 39.5723 76.6459 39.493C76.4665 39.4688 76.2974 39.4567 76.1387 39.4567C75.9834 39.4567 75.8419 39.4688 75.7143 39.493C75.5866 39.5171 75.4796 39.562 75.3934 39.6275C75.2277 39.7621 75.1415 40.0123 75.1346 40.378C75.1242 40.8093 75.245 41.0837 75.4969 41.201C75.7384 41.3148 76.0248 41.3942 76.3561 41.4391C76.6873 41.4805 76.9582 41.5184 77.1687 41.5529C77.3791 41.584 77.5706 41.6271 77.7432 41.6823C77.9157 41.7375 78.0641 41.8255 78.1883 41.9463C78.4471 42.1913 78.573 42.6174 78.5661 43.2247C78.5489 44.284 78.1072 44.8879 77.2411 45.0362C76.9789 45.0811 76.7166 45.1035 76.4544 45.1035C76.1922 45.1035 75.9506 45.0863 75.7298 45.0518C75.5124 45.0207 75.3037 44.9758 75.1035 44.9172C74.724 44.8102 74.3806 44.6687 74.0735 44.4928L74.4462 43.7785Z" fill="black"/>
<defs>
<linearGradient id="paint0_linear_633_111" x1="92.8828" y1="0" x2="92.8828" y2="53" gradientUnits="userSpaceOnUse">
<stop stop-color="#4F4F4F"/>
<stop offset="1" stop-color="#111111"/>
</linearGradient>
<linearGradient id="paint1_linear_633_111" x1="92.8828" y1="0" x2="92.8828" y2="53" gradientUnits="userSpaceOnUse">
<stop stop-color="#C60800"/>
<stop offset="0.0001" stop-color="#DC0800"/>
<stop offset="1" stop-color="#4A0301"/>
</linearGradient>
</defs>
</svg>
