<svg width="96" height="92" viewBox="0 0 96 92" fill="none" xmlns="http://www.w3.org/2000/svg">
<g clip-path="url(#clip0_1404_116)">
<rect width="96" height="92" fill="#F7FCFF"/>
<path d="M32.956 53.2419L40.2315 44.9368L26.7787 20.6051L19.2629 17.0703L-15.5 47.7885V52.87V93.73H54.5861L70.1403 73.876L71.7545 69.9916V57.9801L34.363 56.4678L32.956 53.2419Z" fill="#ADBAC7"/>
<path d="M36.1338 75.6864C34.5011 75.6864 33.1029 75.1046 31.9392 73.9409C30.7755 72.7772 30.1947 71.38 30.1967 69.7492C30.1967 68.1165 30.7785 66.7183 31.9422 65.5546C33.1059 64.3909 34.5031 63.81 36.1338 63.812C37.7666 63.812 39.1648 64.3939 40.3285 65.5576C41.4922 66.7212 42.073 68.1185 42.071 69.7492C42.071 71.3819 41.4892 72.7802 40.3255 73.9438C39.1618 75.1075 37.7646 75.6884 36.1338 75.6864ZM65.8198 75.6864C64.1871 75.6864 62.7889 75.1046 61.6252 73.9409C60.4615 72.7772 59.8806 71.38 59.8826 69.7492C59.8826 68.1165 60.4645 66.7183 61.6282 65.5546C62.7919 64.3909 64.1891 63.81 65.8198 63.812C67.4525 63.812 68.8508 64.3939 70.0144 65.5576C71.1781 66.7212 71.759 68.1185 71.757 69.7492C71.757 71.3819 71.1752 72.7802 70.0115 73.9438C68.8478 75.1075 67.4506 75.6884 65.8198 75.6864ZM33.6105 28.1889L40.7352 43.0318H61.5154L69.679 28.1889H33.6105ZM36.1338 60.8434C33.9074 60.8434 32.2252 59.8658 31.0872 57.9104C29.9493 55.9551 29.8998 54.0137 30.9388 52.0861L34.9464 44.813L24.2595 22.2517H21.2166C20.3755 22.2517 19.6829 21.9667 19.1386 21.3967C18.5944 20.8267 18.3223 20.1222 18.3223 19.2831C18.3223 18.442 18.6073 17.7364 19.1772 17.1665C19.7472 16.5965 20.4517 16.3125 21.2909 16.3145H26.1148C26.6591 16.3145 27.1786 16.4629 27.6733 16.7598C28.1681 17.0566 28.5392 17.4772 28.7866 18.0214L30.7904 22.2517H74.5772C75.9131 22.2517 76.8284 22.7464 77.3231 23.736C77.8179 24.7255 77.7932 25.7645 77.2489 26.853L66.7104 45.852C66.1662 46.8415 65.4487 47.6084 64.5582 48.1527C63.6676 48.6969 62.6533 48.969 61.5154 48.969H39.3993L36.1338 54.9062H68.8626C69.7037 54.9062 70.3964 55.1912 70.9406 55.7612C71.4849 56.3312 71.757 57.0357 71.757 57.8748C71.757 58.7159 71.472 59.4215 70.9021 59.9914C70.3321 60.5614 69.6275 60.8454 68.7884 60.8434H36.1338Z" fill="black"/>
</g>
<defs>
<clipPath id="clip0_1404_116">
<rect width="96" height="92" fill="white"/>
</clipPath>
</defs>
</svg>
