<?xml version="1.0" standalone="no"?>
<!DOCTYPE svg PUBLIC "-//W3C//DTD SVG 1.1//EN" "http://www.w3.org/Graphics/SVG/1.1/DTD/svg11.dtd" >
<svg xmlns="http://www.w3.org/2000/svg" xmlns:xlink="http://www.w3.org/1999/xlink" version="1.1">
<metadata></metadata>
<defs>
<font id="alpaca_solidifyregular" horiz-adv-x="495" >
<font-face units-per-em="1000" ascent="800" descent="-200" />
<missing-glyph horiz-adv-x="500" />
<glyph unicode="&#xd;" horiz-adv-x="248" />
<glyph unicode="!" horiz-adv-x="167" d="M29 0v121h110v-121h-110zM29 208v591h110v-591h-110z" />
<glyph unicode="&#x22;" horiz-adv-x="306" d="M29 630v169h107v-169h-107zM170 630v169h107v-169h-107z" />
<glyph unicode="#" horiz-adv-x="498" d="M29 138v107h54v102h-54v108h54v83h107v-83h119v83h107v-83h53v-108h-53v-102h53v-107h-53v-84h-107v84h-119v-84h-107v84h-54z" />
<glyph unicode="$" horiz-adv-x="550" d="M29 539q0 93 44 161q53 72 149 88v78h106v-81q87 -19 140 -85q53 -67 53 -161h-105q0 44 -20 80q-23 41 -68 57v-251q189 -42 189 -215q0 -72 -58 -129q-54 -52 -131 -68v-63h-106v62q-78 16 -129 71q-56 60 -55 143h105q0 -77 79 -104v213q-98 22 -149 88 q-43 55 -44 116z" />
<glyph unicode="%" horiz-adv-x="672" d="M29 0l489 799h118l-489 -799h-118zM29 618q0 75 46 127q45 53 109 53t109 -53t45 -127q0 -75 -45 -128q-45 -52 -109 -52t-109 52q-45 53 -46 128zM335 180q0 75 45 128t109 52q64 0 110 -52q45 -53 45 -128t-45 -127q-46 -53 -110 -53t-109 53t-45 127z" />
<glyph unicode="&#x26;" horiz-adv-x="590" d="M29 221q0 110 101 178q-101 68 -101 179q0 85 66 148q61 62 155 76v56h109v-56q72 -11 126 -52t77 -99l-83 -48q-10 33 -43 58q-32 25 -77 34v-242h72v-105h-72v-244q44 9 77 34t43 58l83 -48q-22 -59 -77 -100q-54 -41 -126 -51v-57h-109v57q-94 14 -155 76 q-66 63 -66 148z" />
<glyph unicode="'" horiz-adv-x="165" d="M29 670v129h107v-129h-107z" />
<glyph unicode="(" horiz-adv-x="414" d="M29 400q0 271 116 396q89 97 240 102v-106q-108 -4 -168 -72q-83 -95 -83 -320q0 -148 44 -245q62 -139 207 -147v-106q-167 6 -261 138q-94 131 -95 360z" />
<glyph unicode=")" horiz-adv-x="414" d="M29 8q145 8 208 147q44 97 44 245q0 225 -84 320q-60 68 -168 72v106q151 -5 241 -102q116 -125 115 -396q0 -229 -94 -360q-94 -132 -262 -138v106z" />
<glyph unicode="*" horiz-adv-x="270" d="M29 699l23 58l52 -21v62h62v-62l52 21l23 -58l-53 -21l41 -46l-47 -41l-47 54l-47 -54l-47 41l41 46z" />
<glyph unicode="+" horiz-adv-x="462" d="M29 231v108h148v148h108v-148h148v-108h-148v-148h-108v148h-148z" />
<glyph unicode="," horiz-adv-x="160" d="M17 -60l30 81l-6 6q-16 19 -14 44t21 40q19 16 43 14q25 -2 41 -20q16 -19 14 -43q-1 -22 -51 -152z" />
<glyph unicode="-" horiz-adv-x="371" d="M28 199v108h313v-108h-313z" />
<glyph unicode="." horiz-adv-x="171" d="M18 68q0 28 20 48t48 20t48 -20t20 -48t-20 -48t-48 -20t-48 20t-20 48z" />
<glyph unicode="/" horiz-adv-x="343" d="M29 0l176 799h109l-176 -799h-109z" />
<glyph unicode="0" horiz-adv-x="662" d="M24 399q0 230 111 330q77 69 197 70q120 0 197 -70q111 -100 111 -330q0 -188 -82 -293q-82 -106 -226 -106t-226 106t-82 293z" />
<glyph unicode="1" horiz-adv-x="312" d="M24 628l174 171h86v-799h-109v623l-74 -73z" />
<glyph unicode="2" horiz-adv-x="566" d="M24 526v4q0 90 49 163q66 100 196 105q10 0 20 1q122 0 191 -66q65 -63 65 -161q0 -96 -41 -154q-46 -64 -188 -147q-104 -61 -144 -162h373v-109h-502l5 59q3 50 33 112q57 121 180 194q121 71 154 116q22 30 22 91q0 52 -33 82q-37 36 -115 36q-8 0 -16 -1 q-86 -3 -121 -77q-19 -40 -19 -85z" />
<glyph unicode="3" horiz-adv-x="591" d="M24 249h108q0 -57 46 -98q48 -43 116 -43q69 0 117 43q45 41 46 98q0 56 -46 97q-48 43 -117 43h-91v108h91q51 0 87 31q32 28 32 66t-32 66q-36 31 -87 31t-86 -31q-32 -28 -32 -66h-109q0 87 70 147q66 58 157 58q92 0 158 -58q69 -60 69 -147q0 -85 -66 -145 q15 -10 28 -23q82 -73 81 -177q0 -105 -81 -178q-78 -71 -189 -71q-110 0 -189 71q-81 73 -81 178z" />
<glyph unicode="4" horiz-adv-x="519" d="M29 251v548h112v-437h238v437h111v-799h-111v251h-350z" />
<glyph unicode="5" horiz-adv-x="621" d="M29 268h55l56 1q0 -43 24 -83q44 -75 147 -76q100 0 139 52q30 39 31 138l-170 122h-282v377h563v-111h-449v-155h216l233 -170q0 -174 -37 -241q-65 -122 -244 -122q-144 0 -223 99q-59 75 -59 169z" />
<glyph unicode="6" horiz-adv-x="667" d="M24 282v38q0 142 17 210q21 89 53 139q40 62 100 95q64 35 146 35t146 -35q61 -33 101 -95l-93 -60q-25 38 -61 58q-39 21 -93 21t-92 -21q-36 -20 -61 -58q-25 -39 -39 -95q0 -1 -1 -4v-4q83 58 187 58q128 0 220 -83q91 -83 91 -199q0 -117 -91 -199q-91 -83 -220 -83 q-128 0 -219 83t-91 199z" />
<glyph unicode="7" horiz-adv-x="649" d="M44 693v106h576l-393 -799h-137l343 693h-389z" />
<glyph unicode="8" horiz-adv-x="696" d="M24 250q0 104 94 176q20 16 42 28q-72 59 -72 142q0 85 76 144q75 59 185 59q109 0 185 -59t75 -144q0 -83 -71 -142q22 -12 42 -28q94 -72 93 -176q0 -105 -93 -178q-94 -72 -231 -72t-231 72t-94 178z" />
<glyph unicode="9" horiz-adv-x="667" d="M24 517q0 117 91 199q91 83 220 83q128 0 219 -83t91 -199v-29q0 -150 -16 -219q-21 -89 -53 -140q-40 -62 -101 -94q-64 -35 -146 -35t-146 35q-61 33 -100 94l92 61q25 -38 61 -58q39 -21 93 -21t93 21q36 20 61 58q25 39 38 95q0 1 1 4v3q-83 -58 -187 -57 q-128 0 -220 82q-91 83 -91 200z" />
<glyph unicode=":" horiz-adv-x="167" d="M29 164q0 22 16 38t39 16q22 0 39 -16q16 -16 16 -38q0 -23 -16 -39t-39 -16q-22 0 -39 16q-16 16 -16 39zM29 336q0 22 16 39q16 16 39 16q22 0 39 -16q16 -16 16 -39q0 -22 -16 -38t-39 -16q-22 0 -39 16q-16 16 -16 38z" />
<glyph unicode=";" horiz-adv-x="167" d="M29 336q0 22 16 39q16 16 39 16q22 0 39 -16q16 -16 16 -39q0 -22 -16 -38t-39 -16q-22 0 -39 16q-16 16 -16 38zM31 77v129h106v-129h-106z" />
<glyph unicode="&#x3c;" horiz-adv-x="310" d="M29 227l202 154l50 -100l-82 -54l82 -56l-50 -99z" />
<glyph unicode="=" horiz-adv-x="403" d="M29 125v108h345v-108h-345zM29 318v108h345v-108h-345z" />
<glyph unicode="&#x3e;" horiz-adv-x="310" d="M29 171l82 56l-82 54l50 100l202 -154l-202 -155z" />
<glyph unicode="?" horiz-adv-x="591" d="M29 554q0 103 80 175q78 70 187 70q108 0 186 -70q80 -72 80 -175q0 -104 -80 -176q-69 -62 -155 -69v-124h-108v230h85q60 0 107 43q44 40 45 96q0 56 -45 95q-47 42 -115 43q-68 0 -115 -43q-44 -40 -45 -95h-107zM219 54q0 22 15 38q16 16 38 15q22 0 39 -15 q16 -16 15 -38q1 -22 -15 -38t-39 -16q-22 0 -38 16t-15 38z" />
<glyph unicode="@" horiz-adv-x="759" d="M29 394q0 214 107 326q93 97 240 96q115 0 184 -57t86 -167q9 -54 9 -97q0 -85 -34 -126q-35 -41 -96 -40q-56 0 -90 39q-31 36 -31 86q0 77 -44 77q-49 0 -48 -142q0 -54 12 -90q15 -42 43 -42q29 0 42 24q6 12 6 27h106q0 -62 -40 -106q-43 -49 -114 -50q-66 0 -109 53 q-52 62 -52 184q0 247 154 247q60 0 100 -41q49 -49 49 -141q0 -20 16 -20q12 0 16 4q11 13 10 49q0 34 -9 88q-12 72 -50 104q-39 32 -116 32q-94 0 -154 -55q-87 -80 -87 -262q0 -154 75 -241q66 -76 166 -76q131 0 198 83q51 63 51 148h105q0 -135 -90 -231 q-99 -105 -264 -105q-139 -1 -236 102q-111 117 -111 320z" />
<glyph unicode="A" horiz-adv-x="698" d="M29 0l320 800l320 -800h-118l-40 99h-323l-40 -99h-119z" />
<glyph unicode="B" horiz-adv-x="535" d="M29 0v799h209q94 0 160 -67q66 -66 66 -160q0 -90 -62 -155q48 -31 76 -81q28 -51 28 -109q0 -94 -67 -161q-66 -66 -160 -66h-250z" />
<glyph unicode="C" horiz-adv-x="731" d="M29 400q0 81 32 155q30 72 85 127q56 55 127 86q75 31 156 31t155 -31q66 -28 119 -78l-74 -73q-38 35 -85 56q-55 23 -115 23t-116 -23q-53 -23 -94 -64t-63 -94q-23 -56 -23 -115q0 -61 23 -116q22 -53 63 -94q41 -42 94 -64t111 -22h5q60 0 115 22q47 21 85 56l74 -74 q-53 -49 -119 -77q-74 -31 -155 -31t-156 31q-71 30 -127 86q-55 56 -85 127q-31 74 -32 156z" />
<glyph unicode="D" horiz-adv-x="639" d="M29 0v799h182q82 0 155 -31q72 -30 128 -86q55 -55 85 -127q31 -72 31 -150q0 -87 -31 -161q-30 -72 -85 -127q-56 -55 -128 -85q-74 -32 -155 -32h-182z" />
<glyph unicode="E" horiz-adv-x="520" d="M29 0v799h462v-109h-352v-371h272v-110h-272v-100h352v-109h-462z" />
<glyph unicode="F" horiz-adv-x="520" d="M29 0v799h462v-109h-352v-371h272v-110h-272v-209h-110z" />
<glyph unicode="G" horiz-adv-x="857" d="M29 399q0 41 8 81q8 39 24 75q15 36 37 68q21 32 48 59t59 49q32 21 68 36q36 16 75 24q40 8 81 8t81 -8q39 -8 74 -24q36 -15 68 -36q30 -21 56 -46l-72 -73q-19 19 -41 33q-24 16 -51 27q-27 12 -55 17q-30 6 -60 7q-30 0 -60 -7q-29 -5 -55 -17q-27 -11 -51 -27 t-44 -36q-21 -21 -36 -44q-16 -24 -27 -50q-12 -27 -17 -56q-6 -29 -6 -60q0 -30 6 -60q6 -28 17 -55q11 -26 27 -50t36 -44q20 -21 44 -36q24 -17 51 -28q26 -12 55 -17q30 -6 60 -6t60 6q28 5 55 17q27 11 51 28q24 16 43 36q21 20 37 44t27 50q12 27 17 55l2 9h-209v103 h317v-52q0 -41 -9 -80q-8 -39 -23 -75t-37 -68q-21 -32 -49 -59q-27 -27 -59 -49q-32 -21 -68 -37t-74 -23q-40 -8 -81 -8t-81 8q-39 8 -75 23t-68 37t-59 49t-48 59q-22 32 -37 68q-15 37 -24 75q-8 40 -8 80z" />
<glyph unicode="H" horiz-adv-x="594" d="M29 0v799h109v-480h319v480h108v-799h-108v209h-319v-209h-109z" />
<glyph unicode="I" horiz-adv-x="167" d="M29 0v799h109v-799h-109z" />
<glyph unicode="J" horiz-adv-x="452" d="M29 0v109q118 0 202 83q83 83 83 202v405h109v-405q0 -164 -115 -278q-115 -116 -279 -116z" />
<glyph unicode="K" horiz-adv-x="667" d="M29 0v799h109v-258l258 258h154l-313 -313l401 -486h-141l-359 435v-435h-109z" />
<glyph unicode="L" horiz-adv-x="525" d="M32 0v799h109v-690h355v-109h-464z" />
<glyph unicode="M" horiz-adv-x="809" d="M29 0v799l376 -575l375 575v-799h-108v416l-267 -416l-268 416v-416h-108z" />
<glyph unicode="N" horiz-adv-x="639" d="M29 0v799l473 -514v514h108v-799l-473 522v-522h-108z" />
<glyph unicode="O" horiz-adv-x="857" d="M29 400q0 165 117 282t283 117q165 0 282 -117q117 -118 117 -282q0 -166 -117 -283q-118 -117 -282 -117q-166 0 -283 117t-117 283z" />
<glyph unicode="P" horiz-adv-x="561" d="M29 0v799h193q128 0 219 -91t91 -219q0 -129 -91 -220t-219 -91h-80v-178h-113z" />
<glyph unicode="Q" horiz-adv-x="863" d="M29 399q0 165 117 283q117 117 283 117q165 0 282 -117t117 -283q0 -134 -81 -241l158 -158h-154l-81 81q-107 -81 -241 -81q-166 0 -283 117t-117 282z" />
<glyph unicode="R" horiz-adv-x="574" d="M29 0v799h198q128 0 219 -91t91 -219q0 -129 -91 -220q-32 -31 -70 -53l169 -216h-143l-142 178h-118v-178h-113z" />
<glyph unicode="S" horiz-adv-x="559" d="M29 550q0 91 55 162q68 86 189 87q112 0 185 -72t72 -194h-107q0 69 -33 110q-39 48 -114 48h-3q-84 0 -118 -69q-18 -36 -18 -72q0 -31 21 -58q37 -48 126 -57q136 -16 196 -89q46 -55 46 -139q0 -85 -70 -146t-178 -61q-95 0 -165 58q-76 64 -75 171h108q0 -61 46 -95 q38 -26 86 -26q59 0 99.5 29.5t40.5 86.5q0 37 -24 58q-34 36 -123 45q-123 15 -188 86q-54 59 -54 137z" />
<glyph unicode="T" horiz-adv-x="557" d="M28 689v110h501v-110h-195v-689h-110v689h-196z" />
<glyph unicode="U" horiz-adv-x="659" d="M29 300v499h110v-499q0 -79 55 -134q56 -56 136 -57q79 0 135 57q56 56 56 134v499h109v-499q0 -124 -88 -212t-212 -88q-125 0 -213 88t-88 212z" />
<glyph unicode="V" horiz-adv-x="697" d="M29 799h118l202 -505l202 505h117l-319 -799z" />
<glyph unicode="W" horiz-adv-x="1063" d="M29 799h119l198 -487l186 487l185 -487l198 487h119l-317 -799l-185 490l-186 -490z" />
<glyph unicode="X" horiz-adv-x="714" d="M29 0l263 400l-263 399h131l197 -300l198 300h131l-263 -399l263 -400h-131l-198 300l-197 -300h-131z" />
<glyph unicode="Y" horiz-adv-x="765" d="M29 799h122l231 -463l231 463h123l-299 -597v-202h-109v202z" />
<glyph unicode="Z" horiz-adv-x="583" d="M29 691v108h523l-345 -691h348v-108h-523l345 691h-348z" />
<glyph unicode="[" horiz-adv-x="244" d="M29 -171v1144h186v-105h-81v-935h81v-104h-186z" />
<glyph unicode="\" horiz-adv-x="343" d="M29 799h109l176 -799h-109z" />
<glyph unicode="]" horiz-adv-x="244" d="M29 -67h81v935h-81v105h186v-1144h-186v104z" />
<glyph unicode="^" horiz-adv-x="264" d="M29 639l103 154l103 -154l-64 -42l-39 58l-39 -58z" />
<glyph unicode="_" horiz-adv-x="441" d="M29 0v109h383v-109h-383z" />
<glyph unicode="`" horiz-adv-x="244" d="M16 579l45 97l170 -94l-45 -97z" />
<glyph unicode="a" horiz-adv-x="518" d="M29 229q0 95 68 162q67 68 162 68t162 -68q67 -67 68 -162v-229h-109v34q-54 -34 -121 -34q-95 0 -162 67q-68 67 -68 162zM136 230.5q0 -50.5 35 -86t86 -35.5t86 35.5t35 86.5t-35 86t-86 35t-86 -35.5t-35 -86z" />
<glyph unicode="b" horiz-adv-x="518" d="M29 229v570h110v-374q53 34 120 34q95 0 162 -67t68 -163q0 -95 -68 -162q-67 -67 -162 -67t-162 67q-68 67 -68 162z" />
<glyph unicode="c" horiz-adv-x="481" d="M29 229q0 95 68 162q67 68 162 68t162 -68q18 -18 32 -37l-88 -66q-8 14 -21 26q-36 35 -85 36q-49 0 -85 -36q-35 -36 -35 -85t35 -84q36 -35 85 -36q50 0 85 36q13 12 21 26l88 -66q-13 -20 -32 -38q-67 -67 -162 -67t-162 67q-68 67 -68 162z" />
<glyph unicode="d" horiz-adv-x="518" d="M29 229q0 95 68 163q66 67 159 67h3q67 0 120 -34v374h110v-570q0 -95 -68 -162q-67 -67 -162 -67t-162 67t-68 162z" />
<glyph unicode="e" horiz-adv-x="519" d="M29 221v8q0 43 16 83q17 42 47 75q32 34 75 52q42 19 86 20h5q43 0 84 -16q42 -17 74 -47q39 -38 74 -124l-307 -135q15 -12 32 -19q21 -8 43 -9h5q22 1 44 11t39 27q15 18 25 39l101 -40q-17 -42 -47 -74q-32 -34 -74 -52q-41 -19 -84 -20h-7q-43 0 -84 16 q-42 17 -74 47q-34 32 -53 74q-19 40 -20 84z" />
<glyph unicode="f" horiz-adv-x="376" d="M29 197v110h79v206q0 150 88 227q67 58 151 58v-54l1 -54q-41 0 -74 -26q-58 -45 -58 -151v-206h79v-110h-79v-197h-108v197h-79z" />
<glyph unicode="g" horiz-adv-x="517" d="M29 229q0 95 68 163q66 67 159 67h3q95 0 162 -67q66 -67 67 -163v-275q0 -149 -88 -226q-66 -58 -150 -58v54v54q41 1 73 26q57 44 57 150v80q-54 -34 -121 -34q-95 0 -162 67q-68 67 -68 162z" />
<glyph unicode="h" horiz-adv-x="514" d="M29 0v799h108v-375q56 35 122 35q93 0 159 -66t67 -160v-233h-108v233q0 49 -35 83q-35 35 -83 36q-49 0 -84 -36q-35 -34 -35 -83v-233h-111z" />
<glyph unicode="i" horiz-adv-x="194" d="M29 391q0 28 20 48t49 20q28 0 47 -20q20 -20 20 -48t-20 -49q-20 -20 -47 -20q-28 0 -49 20q-20 21 -20 49zM43 0v273h108v-273h-108z" />
<glyph unicode="j" horiz-adv-x="195" d="M-85 -222q41 1 73 26q57 44 57 150v319h108v-319q0 -149 -88 -226q-66 -58 -149 -58v54zM31 391q0 28 20 48t49 20q28 0 47 -20q20 -20 20 -48t-20 -49q-20 -20 -47 -20q-28 0 -49 20q-20 21 -20 49z" />
<glyph unicode="k" horiz-adv-x="451" d="M29 0v799h108v-465l124 125h153l-181 -181l229 -278h-140l-185 225v-225h-108z" />
<glyph unicode="l" horiz-adv-x="166" d="M29 0v799h108v-799h-108z" />
<glyph unicode="m" horiz-adv-x="710" d="M29 0v269q0 79 56 134q56 56 134 56q81 0 136 -58q56 58 137 58q79 0 134 -56q56 -56 56 -134v-269h-107v269q0 34 -25 59q-24 24 -58 24t-58 -24t-24 -59v-269h-109v269q0 34 -24 59q-24 24 -58 24t-58 -24t-24 -59v-269h-108z" />
<glyph unicode="n" horiz-adv-x="514" d="M29 0v231q0 94 67 161t161 67t161 -67t67 -161v-231h-109v231q0 49 -35 84t-84 35t-84 -35t-35 -84v-231h-109z" />
<glyph unicode="o" horiz-adv-x="517" d="M29 229q0 95 68 162q67 68 162 68t162 -68q67 -67 67 -162t-67 -162t-162 -67t-162 67q-68 67 -68 162z" />
<glyph unicode="p" horiz-adv-x="518" d="M30 -46v275q0 95 67 163q66 67 159 67h3q94 0 162 -67.5t68 -162.5q0 -94 -68 -162q-67 -67 -162 -67q-67 0 -121 34v-80v-154h-108v154zM135 232.5q0 -51.5 36.5 -88.5t88.5 -37t88.5 37t36.5 88.5t-36.5 88t-88.5 36.5t-88.5 -36.5t-36.5 -88z" />
<glyph unicode="q" horiz-adv-x="524" d="M29 229q0 95 68 163q66 67 159 67h3q95 0 162 -67t68 -163v-275q0 -105 57 -150q33 -25 73 -26v-54v-54q-83 0 -150 58q-88 76 -89 226v80q-54 -34 -121 -34q-95 0 -162 67q-68 67 -68 162z" />
<glyph unicode="r" horiz-adv-x="284" d="M29 0v459h108v-34q16 10 30 16q40 17 83 17h5v-107q-24 0 -46 -9q-21 -9 -38 -26q-17 -16 -25 -37q-9 -20 -9 -42v-237h-108z" />
<glyph unicode="s" horiz-adv-x="366" d="M29 307q0 60 39 103q42 49 112 49q68 0 112 -44q44 -45 45 -113h-107q0 50 -50 50q-44 0 -44 -45q0 -28 52 -35q84 -10 122 -59q25 -34 25 -82q0 -58 -45 -94.5t-108 -36.5q-58 0 -101 37q-47 41 -47 102h106q0 -20 21 -28q11 -4 21 -5q20 0 32.5 6t14.5 19q0 14 -7 21 q-11 11 -46 15q-71 8 -111 51q-36 38 -36 89z" />
<glyph unicode="t" horiz-adv-x="337" d="M29 542v104h89v153h102v-153h89v-104h-89v-542h-102v542h-89z" />
<glyph unicode="u" horiz-adv-x="511" d="M29 226v233h109v-233q0 -49 34 -83q35 -35 84 -35q48 0 83 35q34 35 35 83v233h108v-233q0 -94 -66 -160t-160 -66h-1q-94 0 -159 66q-66 66 -67 160z" />
<glyph unicode="v" d="M29 459h115l104 -286l104 286h114l-166 -459h-104z" />
<glyph unicode="w" horiz-adv-x="614" d="M29 459h110l51 -284l117 272l117 -272l52 284h109l-83 -459h-121l-74 174l-75 -174h-120z" />
<glyph unicode="x" horiz-adv-x="540" d="M29 0l173 230l-173 229h135l106 -140l105 140h136l-173 -229l173 -230h-136l-105 140l-106 -140h-135z" />
<glyph unicode="y" horiz-adv-x="511" d="M29 226v233h108v-233q0 -49 35 -84t83 -35q49 0 84 35t35 84v233h108v-505q0 -149 -88 -226q-66 -58 -150 -58v54l-1 54q41 1 73 26q58 44 58 150v79q-55 -33 -119 -33q-93 0 -159 66q-67 66 -67 160z" />
<glyph unicode="z" horiz-adv-x="451" d="M24 0l205 351h-203v107h399l-205 -350h203v-108h-399z" />
<glyph unicode="{" horiz-adv-x="382" d="M29 451q35 0 60 18q42 29 43 97q0 118 27 184q51 121 194 121v-106q-57 0 -82 -31q-34 -43 -33 -168q0 -103 -65 -164q77 -70 77 -256q0 -67 43 -96q25 -18 60 -19v-106q-76 0 -136 50q-73 61 -72 171q0 125 -34 168q-24 30 -81 31v53z" />
<glyph unicode="|" horiz-adv-x="167" d="M29 -88v964h109v-964h-109z" />
<glyph unicode="}" horiz-adv-x="382" d="M29 31q35 1 60 19q42 29 43 96q0 186 77 256q-64 61 -64 164q0 125 -34 168q-24 31 -81 31v106q143 0 193 -121q27 -66 27 -184q0 -67 43 -97q25 -18 60 -18v-53v-53q-57 0 -82 -31q-34 -43 -33 -168q0 -110 -73 -171q-59 -50 -135 -50z" />
<glyph unicode="~" horiz-adv-x="487" d="M29 443v115q50 -23 100 -24q8 0 16 1q35 2 99 23t98 23h16q50 0 100 -23v-115q-50 23 -100 23h-16q-35 -2 -98 -23t-99 -23q-8 0 -16 -1q-49 0 -100 24z" />
<glyph unicode="&#xa1;" horiz-adv-x="167" d="M29 0v591h110v-591h-110zM29 678v121h110v-121h-110z" />
<glyph unicode="&#xa2;" horiz-adv-x="394" d="M29 480q0 40 15 76q15 35 42 61q27 27 61 41q36 15 76 15q12 0 24 -1l26 85l62 -18l-26 -86q27 -14 49 -35l7 -6l-47 -48l-7 7q-10 9 -21 17l-71 -234h4q26 0 49 9q22 9 39 26l7 7l47 -47l-7 -7q-26 -25 -60 -40q-36 -16 -75 -15q-12 0 -24 1l-24 -79l-62 19l24 79 q-28 14 -51 36q-27 27 -42 62q-15 36 -15 75z" />
<glyph unicode="&#xa3;" horiz-adv-x="554" d="M29 107q0 60 47 102q40 36 101 43v9q0 50 -5 120h-127v106h119q-6 72 -6 107q0 127 105 179q43 22 92 25l15 1v-98l-13 -1q-37 -3 -62 -21q-39 -28 -39 -85q0 -32 7 -107h135v-106h-127q5 -71 5 -120v-16q56 -17 121 -83q32 -32 50 -44q29 -18 65 -19l13 -1v-98h-14 q-62 1 -112 32q-29 18 -71 60q-40 40 -62 51q-13 -68 -46 -103q-36 -40 -91 -40q-43 0 -71 31q-29 31 -29 76zM127 107q0 -7 2 -9q12 1 19 8q13 14 19 44q-16 -5 -25 -14q-14 -13 -15 -29z" />
<glyph unicode="&#xa4;" horiz-adv-x="296" d="M29 250l26 65l58 -23v70h71v-70l58 23l26 -65l-59 -23l45 -52l-53 -47l-53 61l-52 -61l-54 47l46 52zM116 245q0 -13 9.5 -22t22.5 -9q14 0 23.5 9t9.5 22t-9.5 22t-23.5 9t-23 -9t-9 -22z" />
<glyph unicode="&#xa5;" horiz-adv-x="765" d="M29 799h122l231 -463l231 463h123l-262 -523h113v-84h-150v-41h102v-83h-102v-68h-109v68h-101v83h101v41h-150v84h113z" />
<glyph unicode="&#xa6;" />
<glyph unicode="&#xa7;" horiz-adv-x="360" d="M29 377q0 72 51 116q-48 36 -48 103q0 53 48 90q45 35 101 35q57 0 99 -35q45 -39 45 -100v-4h-72v4q0 31 -25 49q-21 14 -47 14t-52 -16q-25 -17 -25 -37q0 -26 12 -39q19 -20 69 -26q82 -9 118 -55q28 -35 28 -89q0 -73 -51 -107q47 -36 48 -103q0 -53 -49 -90 q-45 -35 -101 -35q-57 0 -98 36q-45 39 -46 99v5h72v-5q0 -31 26 -48q21 -14 46 -14q27 0 51 15q26 17 26 37q0 26 -12 40q-19 20 -69 26q-74 8 -112 51q-32 36 -33 83zM103 382q0 -22 20 -41q23 -21 60 -22q38 0 57 22q17 18 17 45q0 23 -21 44q-24 24 -60 24 q-39 0 -59 -26q-15 -20 -14 -46z" />
<glyph unicode="&#xa8;" horiz-adv-x="320" d="M29 490v109h107v-109h-107zM185 490v109h106v-109h-106z" />
<glyph unicode="&#xa9;" horiz-adv-x="640" d="M29 359q0 121 86 206q84 85 205 85q120 0 205 -85t86 -206q0 -120 -86 -205q-85 -85 -205 -85q-121 0 -205 85q-85 85 -86 205zM95 359q0 -93 66 -158q66 -66 159 -66t159 66t66 158q0 93 -66 160q-66 66 -159 65q-93 0 -159 -65q-66 -66 -66 -160zM157 359q0 35 14 67 q13 31 36 54q24 24 54 37q32 14 67 13q35 0 66 -13q30 -13 53 -36l11 -11l-50 -50l-11 11q-13 13 -30 20q-19 8 -39 8t-39 -8q-17 -7 -31 -21t-22 -32q-8 -19 -7 -39q0 -20 7 -38t22 -32q14 -14 31 -21q19 -8 39 -8q21 0 39 8q17 7 30 20l11 11l50 -50l-11 -11 q-23 -23 -53 -35q-32 -14 -66 -14q-35 0 -67 14q-30 13 -53 36q-24 24 -37 54q-14 32 -14 66z" />
<glyph unicode="&#xaa;" horiz-adv-x="316" />
<glyph unicode="&#xab;" horiz-adv-x="322" d="M29 251l93 179l42 -110l-38 -69l38 -69l-42 -110zM159 251l92 179l42 -110l-37 -69l37 -69l-42 -110z" />
<glyph unicode="&#xac;" />
<glyph unicode="&#xae;" horiz-adv-x="640" d="M29 352q0 120 86 205q84 85 205 85q120 0 205 -85t86 -205q0 -121 -86 -206q-85 -85 -205 -85q-121 0 -205 85q-85 85 -86 206zM95 352q0 -93 66 -160q66 -66 159 -66t159 66t66 160q0 93 -66 158q-66 66 -159 66t-159 -66t-66 -158zM220 188v327h89q54 0 93 -38 q38 -39 38 -93t-38 -92q-7 -7 -15 -13q0 1 72 -91h-92l-53 66q-2 0 -5 -1h-16q0 1 0 -65h-73zM293 327h16q24 0 41 17t17 40q0 24 -17 41t-41 17h-16v-115z" />
<glyph unicode="&#xaf;" horiz-adv-x="327" />
<glyph unicode="&#xb0;" horiz-adv-x="246" d="M29 738q0 39 28 66q27 27 66 27t65 -27q27 -27 28 -66q0 -39 -28 -66q-27 -27 -65 -27q-39 0 -66 27t-28 66zM74 738q0 -20 14 -35q15 -14 35 -14t34 14q14 15 14 35t-14 34q-15 14 -34 15q-20 -1 -35 -15q-14 -15 -14 -34z" />
<glyph unicode="&#xb1;" horiz-adv-x="462" d="M29 0v109h383v-109h-383zM29 306v108h148v148h108v-148h148v-108h-148v-148h-108v148h-148z" />
<glyph unicode="&#xb2;" horiz-adv-x="193" d="M29 728v1q0 23 13 42q17 26 51 28h6q32 0 50 -17q17 -17 17 -43q0 -25 -11 -40q-12 -17 -49 -38q-27 -16 -38 -43h98v-29h-132l2 16q1 13 8 29q15 32 47 51t40 30q6 8 6 24q0 14 -8 22q-10 10 -30 10q-2 0 -5 -1q-22 -1 -31 -20q-5 -11 -5 -22h-29z" />
<glyph unicode="&#xb3;" horiz-adv-x="202" d="M29 655h28q0 -15 12 -26q13 -11 31 -11t30 11t12 26t-12 25q-13 11 -30 11h-23v29h23q13 0 22 8q9 7 9 17t-9 18t-22 8q-14 0 -23 -8t-9 -18h-28q0 23 18 39q18 15 42 15t41 -15q18 -16 18 -39q0 -22 -17 -38q4 -2 7 -6q21 -19 21 -46q0 -28 -21 -47t-49 -19 q-29 0 -50 19t-21 47z" />
<glyph unicode="&#xb4;" horiz-adv-x="244" d="M16 582l170 94l45 -97l-170 -94z" />
<glyph unicode="&#xb5;" horiz-adv-x="576" />
<glyph unicode="&#xb6;" horiz-adv-x="500" />
<glyph unicode="&#xb7;" horiz-adv-x="166" d="M30 176v110h107v-110h-107z" />
<glyph unicode="&#xb8;" horiz-adv-x="176" d="M-68 -165h65q0 -11 4 -18q9 -14 34 -21q25 -8 49 -8q21 0 45 6q43 12 43 41t-43 41q-23 6 -45 7h-32v142h65v-80q49 -7 80 -30q41 -30 41 -80q0 -59 -57 -90q-42 -23 -97 -23q-35 0 -70 12q-40 13 -61 39t-21 62z" />
<glyph unicode="&#xb9;" horiz-adv-x="120" d="M26 754l45 45h23v-210h-29v164l-19 -20z" />
<glyph unicode="&#xba;" horiz-adv-x="199" d="M20 694q0 60 28 87q21 18 52 18q32 0 52 -18q29 -26 29 -87q0 -49 -22 -77q-21 -28 -59 -28t-59 28t-21 77zM49 694q0 -32 10 -50q13 -25 41 -25q29 0 41 25q10 19 10 50q0 45 -17 63q-12 12 -34 12t-34 -12q-17 -18 -17 -63z" />
<glyph unicode="&#xbb;" horiz-adv-x="322" d="M29 182l37 69l-37 69l42 110l93 -179l-93 -179zM159 182l37 69l-37 69l42 110l92 -179l-92 -179z" />
<glyph unicode="&#xbc;" horiz-adv-x="628" d="M40 717l83 82h41v-382h-52v298l-36 -35zM152 0l176 799h60l-176 -799h-60zM367 213v168h53v-115h114v115h53v-381h-53v213h-167z" />
<glyph unicode="&#xbd;" horiz-adv-x="634" d="M40 717l83 82h41v-382h-52v298l-36 -35zM137 0l176 799h60l-176 -799h-60zM335 251v2q0 43 24 78q31 47 93 50h10q58 0 91 -31q31 -30 31 -77q0 -46 -20 -73q-22 -31 -89 -71q-49 -29 -69 -77h178v-52h-239l2 28q1 24 16 54q27 58 86 92q58 34 73 55q10 15 10 44 q0 25 -15 39q-18 17 -55 18q-4 0 -8 -1q-41 -1 -58 -37q-9 -19 -8 -40z" />
<glyph unicode="&#xbe;" horiz-adv-x="710" d="M43 536h52q0 -27 22 -46q23 -21 55 -21q33 0 56 21q22 20 22 46q0 27 -22 47q-23 21 -56 20h-41v51h41q24 0 42 15q15 13 15 32t-15 31q-17 15 -42 15q-24 0 -41 -15q-16 -13 -15 -31h-52q0 42 33 70q31 27 75 28q44 0 76 -28q33 -29 33 -70t-32 -69q7 -5 13 -11 q39 -35 39 -85t-39 -85q-37 -34 -90 -34t-90 34q-39 35 -39 85zM239 0l176 799h60l-176 -799h-60zM446 213v168h53v-115h114v115h53v-381h-53v213h-167z" />
<glyph unicode="&#xbf;" horiz-adv-x="576" d="M23 245q0 104 81 176q69 62 155 69v124h108v-230h-85q-60 0 -107 -43q-44 -40 -45 -96q0 -56 45 -96q47 -42 115 -42t115 42q44 40 45 96h107q0 -103 -80 -175q-78 -70 -187 -70q-108 0 -186 70q-80 72 -81 175zM260 745q-1 22 15 38t38 16t39 -16q16 -16 15 -38 q0 -22 -15 -38q-16 -16 -39 -16q-22 0 -38 16t-15 38z" />
<glyph unicode="&#xc0;" horiz-adv-x="698" d="M29 0l320 800l320 -800h-118l-40 99h-323l-40 -99h-119zM254 892l45 96l171 -94l-45 -97z" />
<glyph unicode="&#xc1;" horiz-adv-x="698" d="M29 0l320 800l320 -800h-118l-40 99h-323l-40 -99h-119zM238 895l171 94l45 -96l-171 -95z" />
<glyph unicode="&#xc2;" horiz-adv-x="698" d="M29 0l320 800l320 -800h-118l-40 99h-323l-40 -99h-119zM225 854l126 165l126 -165l-81 -50l-45 62l-45 -62z" />
<glyph unicode="&#xc3;" horiz-adv-x="698" d="M29 0l320 800l320 -800h-118l-40 99h-323l-40 -99h-119zM174 829v114q41 -28 82 -28q7 0 13 1q28 2 81 27q52 25 80 28q6 0 13 1q41 0 82 -29v-114q-41 28 -82 28q-7 0 -13 -1q-28 -2 -80 -27t-81 -28q-6 0 -13 -1q-41 0 -82 29z" />
<glyph unicode="&#xc4;" horiz-adv-x="698" d="M29 0l320 800l320 -800h-118l-40 99h-323l-40 -99h-119zM219 826v110h106v-110h-106zM374 826v110h106v-110h-106z" />
<glyph unicode="&#xc5;" horiz-adv-x="698" d="M29 0l307 768q-30 4 -53 26q-27 27 -27 66t27 66t66 27q38 0 66 -27t27 -66q0 -39 -27 -66q-23 -22 -53 -26l307 -768h-118l-40 99h-323l-40 -99h-119zM300 860q0 -20 14 -35q14 -14 35 -14q20 0 34 14q14 15 14 35t-14 35q-14 14 -34 14q-21 0 -35 -14q-14 -15 -14 -35z " />
<glyph unicode="&#xc6;" horiz-adv-x="901" d="M29 0l320 800l1 -1h517v-109h-438l155 -371h220v-110h-174l42 -100h195v-109h-316l-40 99h-323l-40 -99h-119z" />
<glyph unicode="&#xc7;" horiz-adv-x="731" d="M29 400q0 81 32 155q30 72 85 127q56 55 127 86q75 31 156 31t155 -31q66 -28 119 -78l-74 -73q-38 35 -85 56q-55 23 -115 23t-116 -23q-53 -23 -94 -64t-63 -94q-23 -56 -23 -115q0 -61 23 -116q22 -53 63 -94q41 -42 94 -64q55 -23 116 -22q60 0 115 22q47 21 85 56 l74 -74q-53 -49 -119 -77q-63 -27 -132 -31v-55q49 -7 81 -30q40 -30 40 -80q0 -59 -57 -90q-42 -23 -96 -23q-36 0 -71 12q-40 13 -61 39t-21 62h65q0 -11 4 -18q9 -14 34 -21q25 -8 50 -8q21 0 44 6q43 12 43 41t-43 41q-23 6 -44 7h-33v119q-59 6 -114 29q-71 30 -127 86 q-55 56 -85 127q-31 74 -32 156z" />
<glyph unicode="&#xc8;" horiz-adv-x="520" d="M29 0v799h462v-109h-352v-371h272v-110h-272v-100h352v-109h-462zM156 915l45 96l170 -94l-45 -97z" />
<glyph unicode="&#xc9;" horiz-adv-x="520" d="M29 0v799h462v-109h-352v-371h272v-110h-272v-100h352v-109h-462zM151 918l170 95l45 -97l-170 -94z" />
<glyph unicode="&#xca;" horiz-adv-x="520" d="M29 0v799h462v-109h-352v-371h272v-110h-272v-100h352v-109h-462zM121 892l126 165l126 -165l-81 -50l-45 62l-45 -62z" />
<glyph unicode="&#xcb;" horiz-adv-x="520" d="M29 0v799h462v-109h-352v-371h272v-110h-272v-100h352v-109h-462zM129 836v110h107v-110h-107zM285 836v110h106v-110h-106z" />
<glyph unicode="&#xcc;" horiz-adv-x="167" d="M4 917l45 97l170 -95l-45 -96zM43 0v799h109v-799h-109z" />
<glyph unicode="&#xcd;" horiz-adv-x="167" d="M-41 914l171 94l45 -97l-171 -94zM29 0v799h109v-799h-109z" />
<glyph unicode="&#xce;" horiz-adv-x="167" d="M-43 888l126 165l126 -165l-82 -51l-44 63l-45 -63zM29 0v799h109v-799h-109z" />
<glyph unicode="&#xcf;" horiz-adv-x="167" d="M-47 838v109h107v-109h-107zM29 0v799h109v-799h-109zM108 838v109h107v-109h-107z" />
<glyph unicode="&#xd0;" horiz-adv-x="639" d="M-24 345v109h53v345h182q82 0 155 -31q72 -30 128 -86q55 -55 85 -127q32 -74 31 -155q0 -82 -31 -156q-30 -72 -85 -127q-56 -55 -128 -85q-74 -32 -155 -32h-182v345h-53zM140 111h71q59 0 112 22q52 22 92 62t63 92q22 54 22 113t-22 112q-22 52 -63 92q-40 40 -92 62 q-54 23 -112 22h-71v-234h218v-109h-218v-234z" />
<glyph unicode="&#xd1;" horiz-adv-x="639" d="M29 0v799l473 -514v514h108v-799l-473 522v-522h-108zM145 829v114q41 -28 81 -28q7 0 13 1q28 2 81 27q52 25 80 28q6 0 14 1q41 0 81 -29v-114q-41 28 -81 28q-7 0 -14 -1q-28 -2 -80 -27t-81 -28q-6 0 -13 -1q-41 0 -81 29z" />
<glyph unicode="&#xd2;" horiz-adv-x="857" d="M29 400q0 165 117 282t283 117q165 0 282 -117q117 -118 117 -282q0 -166 -117 -283q-118 -117 -282 -117q-166 0 -283 117t-117 283zM349 916l45 97l170 -95l-45 -96z" />
<glyph unicode="&#xd3;" horiz-adv-x="857" d="M29 400q0 165 117 282t283 117q165 0 282 -117q117 -118 117 -282q0 -166 -117 -283q-118 -117 -282 -117q-166 0 -283 117t-117 283zM303 914l171 94l45 -97l-171 -94z" />
<glyph unicode="&#xd4;" horiz-adv-x="857" d="M29 400q0 165 117 282t283 117q165 0 282 -117q117 -118 117 -282q0 -166 -117 -283q-118 -117 -282 -117q-166 0 -283 117t-117 283zM304 882l126 165l126 -165l-81 -50l-45 63l-45 -63z" />
<glyph unicode="&#xd5;" horiz-adv-x="857" d="M29 400q0 165 117 282t283 117q165 0 282 -117q117 -118 117 -282q0 -166 -117 -283q-118 -117 -282 -117q-166 0 -283 117t-117 283zM253 858v115q41 -28 82 -29q7 0 13 1q28 2 81 28q52 25 80 27q6 0 13 1q41 0 82 -28v-115q-41 28 -82 28h-13q-28 -2 -80 -28 q-52 -25 -81 -28h-13q-41 0 -82 28z" />
<glyph unicode="&#xd6;" horiz-adv-x="857" d="M29 400q0 165 117 282t283 117q165 0 282 -117q117 -118 117 -282q0 -166 -117 -283q-118 -117 -282 -117q-166 0 -283 117t-117 283zM298 832v109h106v-109h-106zM453 832v109h107v-109h-107z" />
<glyph unicode="&#xd7;" horiz-adv-x="445" d="M45 159l104 104l-104 105l76 76l105 -105l105 105l76 -76l-105 -105l105 -104l-76 -77l-105 105l-105 -105z" />
<glyph unicode="&#xd8;" horiz-adv-x="857" d="M29 400q0 165 117 282t283 117q14 0 28 -1l-170 -773q-78 29 -141 92q-117 117 -117 283zM400 1l170 773q78 -29 141 -92q117 -118 117 -282q0 -166 -117 -283q-118 -117 -282 -117q-15 0 -29 1z" />
<glyph unicode="&#xd9;" horiz-adv-x="659" d="M29 300v499h110v-499q0 -79 55 -134q56 -56 136 -57q79 0 135 57q56 56 56 134v499h109v-499q0 -124 -88 -212t-212 -88q-125 0 -213 88t-88 212zM222 831l45 97l170 -95l-45 -96z" />
<glyph unicode="&#xda;" horiz-adv-x="659" d="M29 300v499h110v-499q0 -79 55 -134q56 -56 136 -57q79 0 135 57q56 56 56 134v499h109v-499q0 -124 -88 -212t-212 -88q-125 0 -213 88t-88 212zM233 844l170 94l45 -96l-170 -94z" />
<glyph unicode="&#xdb;" horiz-adv-x="659" d="M29 300v499h110v-499q0 -79 55 -134q56 -56 136 -57q79 0 135 57q56 56 56 134v499h109v-499q0 -124 -88 -212t-212 -88q-125 0 -213 88t-88 212zM208 839l126 165l126 -165l-82 -50l-44 63l-45 -63z" />
<glyph unicode="&#xdc;" horiz-adv-x="659" d="M29 300v499h110v-499q0 -79 55 -134q56 -56 136 -57q79 0 135 57q56 56 56 134v499h109v-499q0 -124 -88 -212t-212 -88q-125 0 -213 88t-88 212zM199 801v110h106v-110h-106zM354 801v110h106v-110h-106z" />
<glyph unicode="&#xdd;" horiz-adv-x="765" d="M29 799h122l231 -463l231 463h123l-299 -597v-202h-109v202zM279 845l171 94l45 -97l-171 -94z" />
<glyph unicode="&#xde;" horiz-adv-x="546" />
<glyph unicode="&#xdf;" horiz-adv-x="610" />
<glyph unicode="&#xe0;" horiz-adv-x="518" d="M29 229q0 95 68 162q67 68 162 68t162 -68q67 -67 68 -162v-229h-109v34q-54 -34 -121 -34q-95 0 -162 67q-68 67 -68 162zM170 571l45 96l171 -94l-45 -96z" />
<glyph unicode="&#xe1;" horiz-adv-x="518" d="M29 229q0 95 68 162q67 68 162 68t162 -68q67 -67 68 -162v-229h-109v34q-54 -34 -121 -34q-95 0 -162 67q-68 67 -68 162zM127 573l170 94l45 -96l-170 -94z" />
<glyph unicode="&#xe2;" horiz-adv-x="518" d="M29 229q0 95 68 162q67 68 162 68t162 -68q67 -67 68 -162v-229h-109v34q-54 -34 -121 -34q-95 0 -162 67q-68 67 -68 162zM133 541l126 165l126 -165l-81 -51l-45 63l-45 -63z" />
<glyph unicode="&#xe3;" horiz-adv-x="518" d="M29 229q0 95 68 162q67 68 162 68t162 -68q67 -67 68 -162v-229h-109v34q-54 -34 -121 -34q-95 0 -162 67q-68 67 -68 162zM83 514v115q41 -28 82 -28h13q28 2 81 28q52 25 80 28h14q41 0 81 -28v-115q-41 28 -81 28h-14q-28 -2 -80 -28q-52 -25 -81 -28h-13 q-41 0 -82 28z" />
<glyph unicode="&#xe4;" horiz-adv-x="518" d="M29 229q0 95 68 162q67 68 162 68t162 -68q67 -67 68 -162v-229h-109v34q-54 -34 -121 -34q-95 0 -162 67q-68 67 -68 162zM128 490v109h107v-109h-107zM284 490v109h106v-109h-106z" />
<glyph unicode="&#xe5;" horiz-adv-x="518" d="M29 229q0 95 68 162q42 43 96 59q-27 27 -27 66t27 66t66 27t66 -27t28 -66q0 -39 -28 -66q54 -16 96 -59q67 -67 68 -162v-229h-109v34q-54 -34 -121 -34q-95 0 -162 67q-68 67 -68 162zM210 516q0 -20 15 -35q15 -14 34 -14q20 0 35 14q14 15 14 35t-14 35 q-15 14 -35 14q-19 0 -34 -14q-14 -15 -15 -35z" />
<glyph unicode="&#xe6;" horiz-adv-x="869" d="M29 229q0 95 68 162q67 68 162 68t162 -68q67 -67 68 -162v-229h-109v34q-54 -34 -121 -34q-95 0 -162 67q-68 67 -68 162zM382 221v8q0 43 16 83q17 42 47 75q32 34 75 52q42 19 86 20h5q43 0 84 -16q42 -17 74 -47q39 -38 74 -124l-307 -135q15 -12 32 -19q21 -8 43 -9 h5q22 1 44 11t39 27q15 18 25 39l101 -40q-17 -42 -47 -74q-32 -34 -74 -52q-41 -19 -84 -20h-7q-43 0 -84 16q-42 17 -74 47q-34 32 -53 74q-19 40 -20 84z" />
<glyph unicode="&#xe7;" horiz-adv-x="481" d="M29 229q0 95 68 162q67 68 162 68t162 -68q18 -18 32 -37l-88 -66q-8 14 -21 26q-36 35 -85 36q-49 0 -85 -36q-35 -36 -35 -85t35 -84q36 -35 85 -36q50 0 85 36q13 12 21 26l88 -66q-13 -20 -32 -38q-67 -67 -162 -67t-162 67q-68 67 -68 162zM103 -165h65q0 -11 4 -18 q9 -14 34 -21q25 -8 49 -8q21 0 45 6q43 12 43 41t-43 41q-23 6 -45 7h-32v142h65v-80q49 -7 80 -30q41 -30 41 -80q0 -59 -57 -90q-42 -23 -97 -23q-35 0 -70 12q-40 13 -61 39t-21 62z" />
<glyph unicode="&#xe8;" horiz-adv-x="519" d="M29 221v8q0 43 16 83q17 42 47 75q32 34 75 52q42 19 86 20h5q43 0 84 -16q42 -17 74 -47q39 -38 74 -124l-307 -135q15 -12 32 -19q21 -8 43 -9h5q22 1 44 11t39 27q15 18 25 39l101 -40q-17 -42 -47 -74q-32 -34 -74 -52q-41 -19 -84 -20h-7q-43 0 -84 16 q-42 17 -74 47q-34 32 -53 74q-19 40 -20 84zM171 565l45 97l170 -94l-45 -97z" />
<glyph unicode="&#xe9;" horiz-adv-x="519" d="M29 221v8q0 43 16 83q17 42 47 75q32 34 75 52q42 19 86 20h5q43 0 84 -16q42 -17 74 -47q39 -38 74 -124l-307 -135q15 -12 32 -19q21 -8 43 -9h5q22 1 44 11t39 27q15 18 25 39l101 -40q-17 -42 -47 -74q-32 -34 -74 -52q-41 -19 -84 -20h-7q-43 0 -84 16 q-42 17 -74 47q-34 32 -53 74q-19 40 -20 84zM127 568l171 94l45 -97l-171 -94z" />
<glyph unicode="&#xea;" horiz-adv-x="519" d="M29 221v8q0 43 16 83q17 42 47 75q32 34 75 52q42 19 86 20h5q43 0 84 -16q42 -17 74 -47q39 -38 74 -124l-307 -135q15 -12 32 -19q21 -8 43 -9h5q22 1 44 11t39 27q15 18 25 39l101 -40q-17 -42 -47 -74q-32 -34 -74 -52q-41 -19 -84 -20h-7q-43 0 -84 16 q-42 17 -74 47q-34 32 -53 74q-19 40 -20 84zM134 545l126 165l126 -165l-81 -50l-45 63l-45 -63z" />
<glyph unicode="&#xeb;" horiz-adv-x="519" d="M29 221v8q0 43 16 83q17 42 47 75q32 34 75 52q42 19 86 20h5q43 0 84 -16q42 -17 74 -47q39 -38 74 -124l-307 -135q15 -12 32 -19q21 -8 43 -9h5q22 1 44 11t39 27q15 18 25 39l101 -40q-17 -42 -47 -74q-32 -34 -74 -52q-41 -19 -84 -20h-7q-43 0 -84 16 q-42 17 -74 47q-34 32 -53 74q-19 40 -20 84zM124 490v109h106v-109h-106zM279 490v109h107v-109h-107z" />
<glyph unicode="&#xec;" horiz-adv-x="250" d="M17 579l45 97l170 -94l-45 -97zM58 0v459h108v-459h-108z" />
<glyph unicode="&#xed;" horiz-adv-x="250" d="M10 582l170 94l45 -97l-170 -94zM68 0v459h108v-459h-108z" />
<glyph unicode="&#xee;" horiz-adv-x="250" d="M-33 545l126 165l126 -165l-81 -50l-45 63l-45 -63zM43 0v459h108v-459h-108z" />
<glyph unicode="&#xef;" horiz-adv-x="250" d="M-37 494v110h107v-110h-107zM43 0v459h108v-459h-108zM119 494v110h106v-110h-106z" />
<glyph unicode="&#xf0;" horiz-adv-x="556" />
<glyph unicode="&#xf1;" horiz-adv-x="514" d="M29 0v231q0 94 67 161t161 67t161 -67t67 -161v-231h-109v231q0 49 -35 84t-84 35t-84 -35t-35 -84v-231h-109zM82 513v115q41 -28 81 -28h13q28 2 81 28q52 25 80 28h14q41 0 81 -28v-115q-41 28 -81 29q-7 0 -14 -1q-28 -2 -80 -28q-52 -25 -81 -28h-13q-41 0 -81 28z " />
<glyph unicode="&#xf2;" horiz-adv-x="517" d="M29 229q0 95 68 162q67 68 162 68t162 -68q67 -67 67 -162t-67 -162t-162 -67t-162 67q-68 67 -68 162zM156 575l45 97l170 -94l-45 -97z" />
<glyph unicode="&#xf3;" horiz-adv-x="517" d="M29 229q0 95 68 162q67 68 162 68t162 -68q67 -67 67 -162t-67 -162t-162 -67t-162 67q-68 67 -68 162zM144 580l170 94l45 -97l-170 -94z" />
<glyph unicode="&#xf4;" horiz-adv-x="517" d="M29 229q0 95 68 162q67 68 162 68t162 -68q67 -67 67 -162t-67 -162t-162 -67t-162 67q-68 67 -68 162zM133 545l126 165l126 -165l-81 -50l-45 63l-45 -63z" />
<glyph unicode="&#xf5;" horiz-adv-x="517" d="M29 229q0 95 68 162q67 68 162 68t162 -68q67 -67 67 -162t-67 -162t-162 -67t-162 67q-68 67 -68 162zM83 512v114q41 -28 82 -28q7 0 13 1q28 2 81 27q52 25 80 28q6 0 14 1q41 0 81 -29v-114q-41 28 -81 28h-14q-28 -2 -80 -28q-52 -25 -81 -28q-6 0 -13 -1 q-41 0 -82 29z" />
<glyph unicode="&#xf6;" horiz-adv-x="517" d="M29 229q0 95 68 162q67 68 162 68t162 -68q67 -67 67 -162t-67 -162t-162 -67t-162 67q-68 67 -68 162zM128 490v109h106v-109h-106zM283 490v109h107v-109h-107z" />
<glyph unicode="&#xf7;" horiz-adv-x="393" d="M40 212v108h313v-108h-313zM142 108q0 22 16 39q16 16 38 16t39 -16q16 -16 16 -39q0 -22 -16 -38t-39 -16q-22 0 -38 16t-16 38zM142 428q0 22 16 38t38 16t39 -16q16 -16 16 -38q0 -23 -16 -39t-39 -16q-22 0 -38 16t-16 39z" />
<glyph unicode="&#xf8;" horiz-adv-x="517" d="M29 229q0 95 68 162q67 68 162 68t162 -68q67 -67 67 -162t-67 -162t-162 -67t-162 67q-68 67 -68 162zM139 229q0 -49 35 -84q36 -35 85 -36q49 0 85 36q35 36 35 84q0 49 -35 85q-36 35 -85 36q-49 -1 -85 -36q-35 -36 -35 -85zM185 25l91 416h57l-91 -416h-57z" />
<glyph unicode="&#xf9;" horiz-adv-x="511" d="M29 226v233h109v-233q0 -49 34 -83q35 -35 84 -35q48 0 83 35q34 35 35 83v233h108v-233q0 -94 -66 -160t-160 -66h-1q-94 0 -159 66q-66 66 -67 160zM112 579l45 97l171 -94l-45 -97z" />
<glyph unicode="&#xfa;" horiz-adv-x="511" d="M29 226v233h109v-233q0 -49 34 -83q35 -35 84 -35q48 0 83 35q34 35 35 83v233h108v-233q0 -94 -66 -160t-160 -66h-1q-94 0 -159 66q-66 66 -67 160zM148 566l171 95l45 -97l-171 -94z" />
<glyph unicode="&#xfb;" horiz-adv-x="511" d="M29 226v233h109v-233q0 -49 34 -83q35 -35 84 -35q48 0 83 35q34 35 35 83v233h108v-233q0 -94 -66 -160t-160 -66h-1q-94 0 -159 66q-66 66 -67 160zM130 545l126 165l126 -165l-81 -50l-45 63l-45 -63z" />
<glyph unicode="&#xfc;" horiz-adv-x="511" d="M29 226v233h109v-233q0 -49 34 -83q35 -35 84 -35q48 0 83 35q34 35 35 83v233h108v-233q0 -94 -66 -160t-160 -66h-1q-94 0 -159 66q-66 66 -67 160zM125 495v109h106v-109h-106zM280 495v109h107v-109h-107z" />
<glyph unicode="&#xfd;" horiz-adv-x="511" d="M29 226v233h108v-233q0 -49 35 -84t83 -35q49 0 84 35t35 84v233h108v-505q0 -149 -88 -226q-66 -58 -150 -58v54l-1 54q41 1 73 26q58 44 58 150v79q-55 -33 -119 -33q-93 0 -159 66q-67 66 -67 160zM154 579l171 94l45 -97l-171 -94z" />
<glyph unicode="&#xfe;" horiz-adv-x="493" />
<glyph unicode="&#xff;" horiz-adv-x="511" d="M29 226v233h108v-233q0 -49 35 -84t83 -35q49 0 84 35t35 84v233h108v-505q0 -149 -88 -226q-66 -58 -150 -58v54l-1 54q41 1 73 26q58 44 58 150v79q-55 -33 -119 -33q-93 0 -159 66q-67 66 -67 160zM125 490v109h106v-109h-106zM280 490v109h107v-109h-107z" />
<glyph unicode="&#x131;" horiz-adv-x="194" d="M43 0v459h108v-459h-108z" />
<glyph unicode="&#x2c6;" horiz-adv-x="322" d="M35 545l126 165l126 -165l-81 -50l-45 63l-45 -63z" />
<glyph unicode="&#x2c7;" horiz-adv-x="322" d="M35 661l81 49l45 -62l45 62l81 -49l-126 -166z" />
<glyph unicode="&#x2c9;" horiz-adv-x="500" />
<glyph unicode="&#x2d8;" horiz-adv-x="500" />
<glyph unicode="&#x2d9;" horiz-adv-x="188" d="M44 747q0 20 15 34q14 15 34 15t35 -15q14 -14 14 -34t-14 -35q-15 -14 -35 -14t-34 14q-15 15 -15 35z" />
<glyph unicode="&#x2da;" horiz-adv-x="246" d="M29 615q0 39 28 66q27 27 66 27t65 -27q27 -27 28 -66q0 -39 -28 -66q-27 -27 -65 -28q-39 1 -66 28t-28 66zM74 615q0 -20 14 -35q15 -14 35 -14t34 14q14 15 14 35t-14 34q-15 14 -34 15q-20 -1 -35 -15q-14 -15 -14 -34z" />
<glyph unicode="&#x2db;" horiz-adv-x="500" />
<glyph unicode="&#x2dc;" horiz-adv-x="407" d="M29 443v115q41 -28 82 -29q7 0 13 1q28 2 81 28q52 25 80 27q6 0 13 1q41 0 82 -28v-115q-41 28 -82 28h-13q-28 -2 -80 -28q-52 -25 -81 -28h-13q-41 0 -82 28z" />
<glyph unicode="&#x2dd;" horiz-adv-x="350" d="M34 630l36 169h106l-35 -169h-107zM175 630l36 169h106l-35 -169h-107z" />
<glyph unicode="&#x3a1;" horiz-adv-x="561" d="M-101 -276v-54q130 0 130 284v80q95 202 174 161q10 -5 -62 -17q-1 0 1 0q-2 -44 2 44q0 -264 -2 -268q-1 -146 -93 -226q-66 -58 -150 -58v54zM29 0v799h193q128 0 219 -91t91 -219q0 -129 -91 -220t-219 -91h-80v-178h-113z" />
<glyph unicode="&#x3bb;" horiz-adv-x="148" d="M-187 888q28 -13 51 -49t23 -79q0 -18 -3 -22q-1 -2 -2 -5q-9 -21 -2 -36q7 -14 22 -14q12 0 20 13q6 9 9 30q8 62 48 97q7 6 12.5 5.5t7.5 -4.5q31 -57 31 -120v-704h108v800q0 39 -13 71q-12 30 -30 46t-36 24q-18 7 -36 7q-17 0 -36 -6q-20 -6 -40 -18 q-23 -15 -36 -37q-15 -25 -20 -57v-1q-36 47 -78 59zM30 0q108 -90 109 -201l-1 201h-108zM30 0zM137 797zM137 797zM138 0zM138 0z" />
<glyph unicode="&#x41b;" horiz-adv-x="186" d="M49 -201l1 201h108q-108 -90 -109 -201zM50 0v800q0 37 13 71q12 30 30 46t36 24q18 7 36 7q17 0 36 -6q20 -6 40 -18q23 -15 36 -37q15 -25 20 -57v-1q36 47 78 59q-28 -13 -51 -49t-23 -79q0 -18 3 -22q1 -2 2 -5q9 -21 2 -36q-7 -14 -22 -14q-12 0 -20 13q-6 9 -9 30 q-8 62 -48 97q-7 6 -12.5 5.5t-7.5 -4.5q-31 -57 -31 -120v-704h-108zM51 797z" />
<glyph unicode="&#x2013;" horiz-adv-x="541" />
<glyph unicode="&#x2014;" horiz-adv-x="1000" />
<glyph unicode="&#x2018;" horiz-adv-x="165" d="M29 670v129h107v-129h-107z" />
<glyph unicode="&#x2019;" horiz-adv-x="165" d="M29 670v129h107v-129h-107z" />
<glyph unicode="&#x201a;" horiz-adv-x="271" />
<glyph unicode="&#x201c;" horiz-adv-x="306" d="M29 799h107l8 -169h-106zM170 799h107l8 -169h-106z" />
<glyph unicode="&#x201d;" horiz-adv-x="306" d="M29 630l9 169h106l-8 -169h-107zM170 630l9 169h106l-8 -169h-107z" />
<glyph unicode="&#x201e;" horiz-adv-x="444" />
<glyph unicode="&#x2020;" />
<glyph unicode="&#x2021;" />
<glyph unicode="&#x2022;" horiz-adv-x="188" d="M44 249q0 20 15 34q14 15 34 15t35 -15q14 -14 14 -34t-14 -35q-15 -14 -35 -14t-34 14q-15 15 -15 35z" />
<glyph unicode="&#x2026;" horiz-adv-x="1000" />
<glyph unicode="&#x2039;" horiz-adv-x="308" />
<glyph unicode="&#x203a;" horiz-adv-x="308" />
<glyph unicode="&#x2044;" horiz-adv-x="166" />
<glyph unicode="&#x20a3;" />
<glyph unicode="&#x20a4;" />
<glyph unicode="&#x20a7;" horiz-adv-x="990" />
<glyph unicode="&#x20ac;" />
<glyph unicode="&#x2116;" horiz-adv-x="1108" />
<glyph unicode="&#x2122;" horiz-adv-x="730" />
<glyph unicode="&#x2202;" />
<glyph unicode="&#x2206;" horiz-adv-x="527" />
<glyph unicode="&#x220f;" horiz-adv-x="739" />
<glyph unicode="&#x2211;" horiz-adv-x="588" />
<glyph unicode="&#x2212;" />
<glyph unicode="&#x221a;" />
<glyph unicode="&#x221e;" />
<glyph unicode="&#x222b;" horiz-adv-x="324" />
<glyph unicode="&#x2248;" />
<glyph unicode="&#x2264;" />
<glyph unicode="&#x2265;" />
<glyph unicode="&#x25fc;" horiz-adv-x="460" d="M0 0v460h460v-460h-460z" />
<glyph unicode="&#xfb01;" horiz-adv-x="523" />
<glyph unicode="&#xfb02;" horiz-adv-x="527" />
</font>
</defs>
</svg>
